<?xml version="1.0" encoding="UTF-8" standalone="no"?>
<!DOCTYPE svg PUBLIC "-//W3C//DTD SVG 1.1//EN"
 "http://www.w3.org/Graphics/SVG/1.1/DTD/svg11.dtd">
<!-- Generated by graphviz version 2.49.0 (20210828.1703)
 -->
<!-- Title: unix Pages: 1 -->
<svg width="432pt" height="157pt"
 viewBox="0.00 0.00 432.00 157.18" xmlns="http://www.w3.org/2000/svg" xmlns:xlink="http://www.w3.org/1999/xlink">
<g id="graph0" class="graph" transform="scale(0.6 0.6) rotate(0) translate(4 256)">
<title>unix</title>
<polygon fill="white" stroke="transparent" points="-4,4 -4,-256 710.6,-256 710.6,4 -4,4"/>
<!-- 1&#45;1 -->
<g id="node1" class="node">
<title>1&#45;1</title>
<ellipse fill="#b2dfee" stroke="#b2dfee" cx="317" cy="-234" rx="27" ry="18"/>
<text text-anchor="middle" x="317" y="-230.3" font-family="Times,serif" font-size="14.00">11</text>
</g>
<!-- 2&#45;1 -->
<g id="node2" class="node">
<title>2&#45;1</title>
<ellipse fill="#b2dfee" stroke="#b2dfee" cx="27" cy="-162" rx="27" ry="18"/>
<text text-anchor="middle" x="27" y="-158.3" font-family="Times,serif" font-size="14.00">21</text>
</g>
<!-- 1&#45;1&#45;&gt;2&#45;1 -->
<g id="edge1" class="edge">
<title>1&#45;1&#45;&gt;2&#45;1</title>
<path fill="none" stroke="black" d="M290.5,-229.57C243.7,-223.05 143.72,-207.06 63,-180 61.08,-179.36 59.13,-178.64 57.19,-177.87"/>
<polygon fill="black" stroke="black" points="58.17,-174.48 47.6,-173.74 55.4,-180.91 58.17,-174.48"/>
</g>
<!-- 2&#45;2 -->
<g id="node3" class="node">
<title>2&#45;2</title>
<ellipse fill="#b2dfee" stroke="#b2dfee" cx="99" cy="-162" rx="27" ry="18"/>
<text text-anchor="middle" x="99" y="-158.3" font-family="Times,serif" font-size="14.00">22</text>
</g>
<!-- 1&#45;1&#45;&gt;2&#45;2 -->
<g id="edge2" class="edge">
<title>1&#45;1&#45;&gt;2&#45;2</title>
<path fill="none" stroke="black" d="M292.41,-226.49C257.99,-217.19 193.64,-199.09 140,-180 136.88,-178.89 133.65,-177.67 130.44,-176.41"/>
<polygon fill="black" stroke="black" points="131.55,-173.09 120.97,-172.59 128.93,-179.58 131.55,-173.09"/>
</g>
<!-- 2&#45;3 -->
<g id="node4" class="node">
<title>2&#45;3</title>
<ellipse fill="#b2dfee" stroke="#b2dfee" cx="127" cy="-90" rx="27" ry="18"/>
<text text-anchor="middle" x="127" y="-86.3" font-family="Times,serif" font-size="14.00">23</text>
</g>
<!-- 1&#45;1&#45;&gt;2&#45;3 -->
<g id="edge4" class="edge">
<title>1&#45;1&#45;&gt;2&#45;3</title>
<path fill="none" stroke="black" d="M290.94,-229.27C259.62,-223.59 207.05,-210.06 173,-180 154.12,-163.34 141.89,-137.06 134.82,-117.37"/>
<polygon fill="black" stroke="black" points="138.09,-116.12 131.58,-107.76 131.45,-118.35 138.09,-116.12"/>
</g>
<!-- 24 -->
<g id="node6" class="node">
<title>24</title>
<ellipse fill="#b2dfee" stroke="#b2dfee" cx="209" cy="-162" rx="27" ry="18"/>
<text text-anchor="middle" x="209" y="-158.3" font-family="Times,serif" font-size="14.00">24</text>
</g>
<!-- 1&#45;1&#45;&gt;24 -->
<g id="edge6" class="edge">
<title>1&#45;1&#45;&gt;24</title>
<path fill="none" stroke="black" d="M298.19,-220.81C281,-209.67 255.38,-193.06 236.01,-180.5"/>
<polygon fill="black" stroke="black" points="237.89,-177.56 227.6,-175.05 234.08,-183.43 237.89,-177.56"/>
</g>
<!-- 25 -->
<g id="node7" class="node">
<title>25</title>
<ellipse fill="#b2dfee" stroke="#b2dfee" cx="281" cy="-162" rx="27" ry="18"/>
<text text-anchor="middle" x="281" y="-158.3" font-family="Times,serif" font-size="14.00">25</text>
</g>
<!-- 1&#45;1&#45;&gt;25 -->
<g id="edge7" class="edge">
<title>1&#45;1&#45;&gt;25</title>
<path fill="none" stroke="black" d="M308.65,-216.76C304.29,-208.28 298.85,-197.71 293.96,-188.2"/>
<polygon fill="black" stroke="black" points="296.99,-186.44 289.3,-179.15 290.77,-189.64 296.99,-186.44"/>
</g>
<!-- 26 -->
<g id="node8" class="node">
<title>26</title>
<ellipse fill="#b2dfee" stroke="#b2dfee" cx="353" cy="-162" rx="27" ry="18"/>
<text text-anchor="middle" x="353" y="-158.3" font-family="Times,serif" font-size="14.00">26</text>
</g>
<!-- 1&#45;1&#45;&gt;26 -->
<g id="edge8" class="edge">
<title>1&#45;1&#45;&gt;26</title>
<path fill="none" stroke="black" d="M325.35,-216.76C329.71,-208.28 335.15,-197.71 340.04,-188.2"/>
<polygon fill="black" stroke="black" points="343.23,-189.64 344.7,-179.15 337.01,-186.44 343.23,-189.64"/>
</g>
<!-- 27 -->
<g id="node9" class="node">
<title>27</title>
<ellipse fill="#b2dfee" stroke="#b2dfee" cx="425" cy="-162" rx="27" ry="18"/>
<text text-anchor="middle" x="425" y="-158.3" font-family="Times,serif" font-size="14.00">27</text>
</g>
<!-- 1&#45;1&#45;&gt;27 -->
<g id="edge9" class="edge">
<title>1&#45;1&#45;&gt;27</title>
<path fill="none" stroke="black" d="M335.81,-220.81C353,-209.67 378.62,-193.06 397.99,-180.5"/>
<polygon fill="black" stroke="black" points="399.92,-183.43 406.4,-175.05 396.11,-177.56 399.92,-183.43"/>
</g>
<!-- 28 -->
<g id="node10" class="node">
<title>28</title>
<ellipse fill="#b2dfee" stroke="#b2dfee" cx="497" cy="-162" rx="27" ry="18"/>
<text text-anchor="middle" x="497" y="-158.3" font-family="Times,serif" font-size="14.00">28</text>
</g>
<!-- 1&#45;1&#45;&gt;28 -->
<g id="edge10" class="edge">
<title>1&#45;1&#45;&gt;28</title>
<path fill="none" stroke="black" d="M340.69,-225C369.44,-215.13 419.23,-197.51 461,-180 462.82,-179.24 464.68,-178.44 466.54,-177.61"/>
<polygon fill="black" stroke="black" points="468.17,-180.71 475.82,-173.38 465.27,-174.35 468.17,-180.71"/>
</g>
<!-- 29 -->
<g id="node11" class="node">
<title>29</title>
<ellipse fill="#b2dfee" stroke="#b2dfee" cx="569" cy="-162" rx="27" ry="18"/>
<text text-anchor="middle" x="569" y="-158.3" font-family="Times,serif" font-size="14.00">29</text>
</g>
<!-- 1&#45;1&#45;&gt;29 -->
<g id="edge11" class="edge">
<title>1&#45;1&#45;&gt;29</title>
<path fill="none" stroke="black" d="M342.76,-228.42C383.75,-220.74 466.04,-203.75 533,-180 534.91,-179.32 536.85,-178.58 538.79,-177.79"/>
<polygon fill="black" stroke="black" points="540.6,-180.82 548.36,-173.61 537.79,-174.41 540.6,-180.82"/>
</g>
<!-- 29&#45;1 -->
<g id="node12" class="node">
<title>29&#45;1</title>
<ellipse fill="#b2dfee" stroke="#b2dfee" cx="641" cy="-162" rx="27.1" ry="18"/>
<text text-anchor="middle" x="641" y="-158.3" font-family="Times,serif" font-size="14.00">29&#45;1</text>
</g>
<!-- 1&#45;1&#45;&gt;29&#45;1 -->
<g id="edge12" class="edge">
<title>1&#45;1&#45;&gt;29&#45;1</title>
<path fill="none" stroke="black" d="M343.77,-230.42C395.34,-224.93 511.6,-210.08 605,-180 606.88,-179.4 608.78,-178.72 610.68,-177.98"/>
<polygon fill="black" stroke="black" points="612.21,-181.14 620.05,-174.01 609.48,-174.69 612.21,-181.14"/>
</g>
<!-- 2&#45;2&#45;&gt;2&#45;3 -->
<g id="edge3" class="edge">
<title>2&#45;2&#45;&gt;2&#45;3</title>
<path fill="none" stroke="black" d="M105.64,-144.41C108.91,-136.22 112.94,-126.14 116.62,-116.95"/>
<polygon fill="black" stroke="black" points="119.95,-118.05 120.41,-107.47 113.45,-115.45 119.95,-118.05"/>
</g>
<!-- 31 -->
<g id="node5" class="node">
<title>31</title>
<ellipse fill="#b2dfee" stroke="#b2dfee" cx="127" cy="-18" rx="27" ry="18"/>
<text text-anchor="middle" x="127" y="-14.3" font-family="Times,serif" font-size="14.00">31</text>
</g>
<!-- 2&#45;3&#45;&gt;31 -->
<g id="edge5" class="edge">
<title>2&#45;3&#45;&gt;31</title>
<path fill="none" stroke="black" d="M127,-71.7C127,-63.98 127,-54.71 127,-46.11"/>
<polygon fill="black" stroke="black" points="130.5,-46.1 127,-36.1 123.5,-46.1 130.5,-46.1"/>
</g>
<!-- 2912 -->
<g id="node13" class="node">
<title>2912</title>
<ellipse fill="#b2dfee" stroke="#b2dfee" cx="603" cy="-90" rx="28.7" ry="18"/>
<text text-anchor="middle" x="603" y="-86.3" font-family="Times,serif" font-size="14.00">2912</text>
</g>
<!-- 29&#45;1&#45;&gt;2912 -->
<g id="edge13" class="edge">
<title>29&#45;1&#45;&gt;2912</title>
<path fill="none" stroke="black" d="M632.19,-144.76C627.58,-136.28 621.84,-125.71 616.68,-116.2"/>
<polygon fill="black" stroke="black" points="619.61,-114.27 611.77,-107.15 613.46,-117.61 619.61,-114.27"/>
</g>
<!-- 2914 -->
<g id="node14" class="node">
<title>2914</title>
<ellipse fill="#b2dfee" stroke="#b2dfee" cx="678" cy="-90" rx="28.7" ry="18"/>
<text text-anchor="middle" x="678" y="-86.3" font-family="Times,serif" font-size="14.00">2914</text>
</g>
<!-- 29&#45;1&#45;&gt;2914 -->
<g id="edge14" class="edge">
<title>29&#45;1&#45;&gt;2914</title>
<path fill="none" stroke="black" d="M649.58,-144.76C654,-136.4 659.49,-126.02 664.47,-116.61"/>
<polygon fill="black" stroke="black" points="667.63,-118.11 669.21,-107.63 661.44,-114.84 667.63,-118.11"/>
</g>
</g>
<script>let customFunction = new Function('e','relation','index','nodeKeyName',`
let customEvent = new CustomEvent('dispatchEventLister',{detail:{
    hazcheeseburger: relation,
    index:index,
    nodeKeyName:nodeKeyName,
    eventInfo : e
}})
document.dispatchEvent(customEvent)
`)
console.log(document.ownerDocument,window)
let node1 = document.querySelector('#node1');
node1.addEventListener('click',(e)=>{

    customFunction(e,`describe`,`1`,`1-1`)
})



let node2 = document.querySelector('#node2');
node2.addEventListener('click',(e)=>{
    console.log(e,document,window)
    customFunction(e,`{'nodeName': '2111', 'child': [{'nodeName': '2111-12'}, {'nodeName': '2111-14'}]}`,`2`,`2-1`)
})



let node4 = document.querySelector('#node3');
node4.addEventListener('click',(e)=>{
    console.log(e,document,window)
    customFunction(e,`describe`,`4`,`2-2`)
})



let node6 = document.querySelector('#node4');
node6.addEventListener('click',(e)=>{
    console.log(e,document,window)
    customFunction(e,`describe`,`6`,`2-3`)
})



let node20 = document.querySelector('#node12');
node20.addEventListener('click',(e)=>{
    console.log(e,document,window)
    customFunction(e,`{'nodeName': '2911', 'child': [{'nodeName': '2911-12'}, {'nodeName': '2911-14'}]}`,`20`,`29-1`)
})



</script></svg>
